<svg width="32" height="32" viewBox="0 0 32 32" fill="none" xmlns="http://www.w3.org/2000/svg">
  <path d="M19 3C19 4.65685 17.6569 6 16 6C14.3431 6 13 4.65685 13 3C13 1.34315 14.3431 0 16 0C17.6569 0 19 1.34315 19 3Z" fill="#CED0D6"/>
  <path fill-rule="evenodd" clip-rule="evenodd" d="M12 20C14.2091 20 16 18.2091 16 16C16 18.2091 17.7909 20 20 20C22.2091 20 24 18.2091 24 16C24 13.7909 22.2091 12 20 12C17.7909 12 16 13.7909 16 16C16 13.7909 14.2091 12 12 12C9.79086 12 8 13.7909 8 16C8 18.2091 9.79086 20 12 20ZM12 18.5C13.3807 18.5 14.5 17.3807 14.5 16C14.5 14.6193 13.3807 13.5 12 13.5C10.6193 13.5 9.5 14.6193 9.5 16C9.5 17.3807 10.6193 18.5 12 18.5ZM20 18.5C21.3807 18.5 22.5 17.3807 22.5 16C22.5 14.6193 21.3807 13.5 20 13.5C18.6193 13.5 17.5 14.6193 17.5 16C17.5 17.3807 18.6193 18.5 20 18.5Z" fill="#CED0D6"/>
  <path d="M19.8495 21.9238C18.7513 22.7824 17.3975 23.2492 16.0035 23.25C14.6094 23.2508 13.2551 22.7855 12.156 21.9281L11.2334 23.1109C12.5964 24.174 14.2757 24.751 16.0043 24.75C17.7329 24.749 19.4116 24.1702 20.7734 23.1055L19.8495 21.9238Z" fill="#CED0D6"/>
  <path fill-rule="evenodd" clip-rule="evenodd" d="M28 14V12C28 8.68629 25.3137 6 22 6H16H10C6.68629 6 4 8.68629 4 12V14C2.89543 14 2 15.7909 2 18C2 20.2091 2.89543 22 4 22V24C4 27.3137 6.68629 30 10 30H22C25.3137 30 28 27.3137 28 24V22C29.1046 22 30 20.2091 30 18C30 15.7909 29.1046 14 28 14ZM26 12C26 9.79086 24.2091 8 22 8H10C7.79086 8 6 9.79086 6 12V24C6 26.2091 7.79086 28 10 28H22C24.2091 28 26 26.2091 26 24V12Z" fill="#CED0D6"/>
</svg>
